<svg width="100" height="101" viewBox="0 0 100 101" fill="none" xmlns="http://www.w3.org/2000/svg">
<path d="M88.4565 82.476C93.5881 76.2997 97.1568 68.9782 98.861 61.1308C100.565 53.2835 100.354 45.1411 98.2468 37.3923C96.1392 29.6436 92.1966 22.5165 86.7525 16.6138C81.3085 10.7112 74.5231 6.20654 66.9703 3.48102C59.4175 0.755488 51.3194 -0.110786 43.3611 0.955466C35.4027 2.02172 27.8182 4.98913 21.249 9.60672C14.6798 14.2243 9.31916 20.3562 5.62052 27.4838C1.92188 34.6114 -0.0059774 42.5251 1.3922e-05 50.5554C0.00281319 62.2305 4.11676 73.5318 11.62 82.476L11.5485 82.5354C11.7987 82.8374 12.0846 83.0955 12.3427 83.3904C12.6643 83.7607 13.0089 84.1053 13.3434 84.4656C14.3442 85.5498 15.3714 86.5932 16.4529 87.5755C16.78 87.8725 17.1192 88.1517 17.4537 88.4394C18.5974 89.4257 19.7712 90.3597 20.9921 91.2322C21.1497 91.3438 21.2895 91.48 21.4482 91.5918V91.5464C29.8193 97.4378 39.8055 100.6 50.0415 100.6C60.2775 100.6 70.2637 97.4378 78.6348 91.5464V91.5911C78.7934 91.4792 78.9332 91.343 79.0908 91.2315C80.3103 90.359 81.4855 89.4249 82.6292 88.4387C82.9638 88.1528 83.303 87.8718 83.63 87.5748C84.7112 86.5921 85.7388 85.5487 86.7395 84.4649C87.073 84.1053 87.4165 83.76 87.7403 83.3897C87.9973 83.0948 88.2843 82.8367 88.5345 82.5347L88.4565 82.476ZM50.0383 21.959C53.2193 21.959 56.3289 22.9024 58.9739 24.6699C61.6188 26.4374 63.6803 28.9496 64.8977 31.8888C66.115 34.8281 66.4335 38.0623 65.8129 41.1826C65.1923 44.3029 63.6605 47.169 61.4112 49.4186C59.1618 51.6682 56.296 53.2002 53.176 53.8208C50.0561 54.4415 46.8222 54.1229 43.8833 52.9055C40.9444 51.688 38.4324 49.6263 36.6651 46.9811C34.8978 44.3358 33.9545 41.2259 33.9545 38.0445C33.9545 33.7783 35.6491 29.687 38.6653 26.6703C41.6816 23.6537 45.7726 21.959 50.0383 21.959ZM21.4704 82.476C21.5321 77.7825 23.4391 73.302 26.7788 70.004C30.1185 66.706 34.6224 64.8558 39.3158 64.8535H60.7607C65.4541 64.8559 69.9579 66.7062 73.2976 70.0042C76.6373 73.3021 78.5443 77.7826 78.6062 82.476C70.7675 89.5403 60.5899 93.4498 50.0383 93.4498C39.4866 93.4498 29.309 89.5403 21.4704 82.476Z" fill="#9761AA"/>
</svg>
