<svg width="120" height="120" viewBox="0 0 120 120" fill="none" xmlns="http://www.w3.org/2000/svg">
<path d="M60 120C48.1331 120 36.5328 116.481 26.6658 109.888C16.7989 103.295 9.10851 93.9246 4.56725 82.961C0.025997 71.9974 -1.1622 59.9335 1.15291 48.2946C3.46802 36.6557 9.18247 25.9648 17.5736 17.5736C25.9648 9.18247 36.6557 3.46802 48.2946 1.15291C59.9335 -1.1622 71.9974 0.025997 82.961 4.56725C93.9246 9.10851 103.295 16.7989 109.888 26.6658C116.481 36.5328 120 48.1331 120 60C120 75.913 113.679 91.1742 102.426 102.426C91.1742 113.679 75.913 120 60 120ZM60 8.57145C49.8284 8.57145 39.8852 11.5877 31.4278 17.2387C22.9705 22.8898 16.3787 30.9218 12.4862 40.3192C8.59371 49.7165 7.57526 60.0571 9.55964 70.0332C11.544 80.0094 16.4421 89.1731 23.6345 96.3655C30.8269 103.558 39.9906 108.456 49.9668 110.44C59.943 112.425 70.2835 111.406 79.6809 107.514C89.0782 103.621 97.1102 97.0296 102.761 88.5722C108.412 80.1148 111.429 70.1716 111.429 60C111.429 46.3603 106.01 33.2793 96.3655 23.6345C86.7208 13.9898 73.6397 8.57145 60 8.57145V8.57145Z" fill="#9761AA"/>
<path d="M79.6715 85.7143L55.7143 61.7572V21.4286H64.2858V58.2L85.7143 79.6714L79.6715 85.7143Z" fill="#9761AA"/>
</svg>
