<svg width="100" height="100" viewBox="0 0 100 100" fill="none" xmlns="http://www.w3.org/2000/svg">
<path d="M49.958 99.9993C22.1868 100.12 -0.648126 77.0112 0.0140479 48.7876C0.63609 21.9079 22.9092 -0.297869 50.6001 0.00302231C78.0302 0.303914 100.725 23.1316 99.9823 51.3953C99.28 78.1546 77.1874 100.14 49.958 99.9993ZM6.09401 50.0714C6.31474 75.2059 26.7017 94.5632 50.7807 94.142C74.0973 93.7207 93.8622 74.7244 93.8622 50.0112C93.8622 24.8767 73.3147 5.43913 49.1554 5.9005C25.8388 6.32175 6.25454 25.3782 6.09401 50.0714Z" fill="#9761AA"/>
<path d="M39.5238 85.1954C39.5238 73.3804 39.5238 61.6657 39.5238 49.8306C36.9152 49.8306 34.3869 49.8306 31.7984 49.8306C31.7984 45.8187 31.7984 41.9272 31.7984 37.9153C32.1395 37.8952 32.4807 37.8551 32.8418 37.8551C34.708 37.8551 36.5942 37.815 38.4603 37.8752C39.283 37.8952 39.5639 37.6746 39.5438 36.8321C39.5037 33.7831 39.5037 30.7541 39.5238 27.705C39.5438 24.2749 40.507 21.1657 42.955 18.6783C45.3228 16.2712 48.3528 14.9673 51.6436 14.7667C56.941 14.4658 62.2584 14.5059 67.5759 14.4056C67.6361 14.4056 67.6963 14.4658 67.8167 14.526C67.8167 18.5579 67.8167 22.61 67.8167 26.7623C67.4354 26.7823 67.0742 26.8024 66.7331 26.8024C64.3252 26.8024 61.9173 26.8024 59.5094 26.8024C57.0814 26.8224 55.6568 28.2667 55.6568 30.6538C55.6568 32.9205 55.6567 35.2073 55.6768 37.474C55.6768 37.5342 55.7169 37.5944 55.7771 37.815C59.7502 37.815 63.7634 37.815 67.9772 37.815C67.4555 41.8871 66.9739 45.7786 66.4522 49.8106C62.8203 49.8106 59.2686 49.8106 55.6166 49.8106C55.6166 61.6857 55.6166 73.4406 55.6166 85.2355C50.2189 85.1954 44.9616 85.1954 39.5238 85.1954Z" fill="#9761AA"/>
</svg>
