<svg width="100" height="100" viewBox="0 0 100 100" fill="none" xmlns="http://www.w3.org/2000/svg">
<path d="M92.9055 16.1341C88.4344 10.7575 82.4827 7.80076 76.1365 7.80076C76.1085 7.80076 76.0798 7.80076 76.0516 7.80091C69.5438 7.82803 63.4317 10.928 58.841 16.5303L55.6575 20.4157L52.2765 16.2894C47.7443 10.7585 41.7077 7.71266 35.2787 7.71266C30.309 7.71471 25.478 9.55958 21.5307 12.9628V12.1342C21.5307 8.91598 20.3965 5.82961 18.3776 3.55401C16.3587 1.27842 13.6205 0 10.7653 0C7.91019 0 5.17198 1.27842 3.15309 3.55401C1.1342 5.82961 0 8.91598 0 12.1342V19.3396H7.131V23.2566H0V31.8843H7.131V35.8013H0V44.4287H7.131V48.3457H0V55.551C0.000158229 58.0511 0.685245 60.4902 1.96163 62.5348C3.23802 64.5795 5.04343 66.13 7.13113 66.9745V77.9368C7.13113 79.0232 7.51402 80.0652 8.19557 80.8334C8.87712 81.6016 9.8015 82.0332 10.7654 82.0332C11.7292 82.0332 12.6536 81.6016 13.3351 80.8334C14.0167 80.0652 14.3996 79.0232 14.3996 77.9368V66.9752C15.8024 66.4054 17.0854 65.5142 18.1675 64.3578C19.2496 63.2015 20.1075 61.8049 20.687 60.2563L51.5745 97.9516C52.0897 98.5964 52.7194 99.1119 53.4227 99.4648C54.1261 99.8177 54.8873 100 55.6572 100C56.427 100 57.1883 99.8177 57.8916 99.4648C58.5949 99.1119 59.2246 98.5964 59.7398 97.9516V97.9516L93.0339 57.3196C102.372 45.9235 102.314 27.4478 92.9055 16.1341ZM90.4809 54.662L57.1868 95.2941V95.2942C56.9971 95.5418 56.7622 95.7403 56.4983 95.8764C56.2344 96.0125 55.9475 96.083 55.6573 96.083C55.367 96.083 55.0802 96.0125 54.8163 95.8764C54.5524 95.7402 54.3175 95.5416 54.1278 95.2941L20.8338 54.662C20.8278 54.6547 20.8224 54.6469 20.8164 54.6396H38.7448C39.0935 54.6396 39.434 54.5214 39.7223 54.3004C40.0105 54.0793 40.2331 53.7656 40.361 53.4001L46.907 34.7065L53.9738 68.923C54.0603 69.3416 54.2664 69.7165 54.5606 69.9899C54.8547 70.2633 55.2204 70.4202 55.6014 70.4362C55.6234 70.4371 55.645 70.4375 55.6667 70.4375C56.0368 70.4374 56.3971 70.3041 56.6953 70.057C56.9935 69.81 57.2139 69.4621 57.3244 69.064L64.6851 42.5535L68.8077 60.7041C68.9015 61.1168 69.112 61.4838 69.4075 61.7495C69.703 62.0152 70.0673 62.165 70.4451 62.1763C70.823 62.1875 71.1938 62.0596 71.5013 61.8119C71.8088 61.5642 72.0363 61.2103 72.1493 60.8037L74.4246 52.6159H84.6416V48.6989H74.3562C73.7207 48.6962 73.0974 48.8949 72.5572 49.2722C72.0171 49.6495 71.5818 50.1903 71.3011 50.8329C71.2605 50.9251 71.2264 51.0208 71.199 51.1189L70.659 53.0617L68.0033 41.3699C67.8246 40.5551 67.4142 39.8286 66.835 39.3012C66.2557 38.7739 65.5392 38.4746 64.795 38.449C64.0507 38.4235 63.3194 38.6731 62.7127 39.1598C62.106 39.6465 61.6573 40.3435 61.4349 41.1445L55.9125 61.034L50.2455 33.5955C50.0805 32.7969 49.6934 32.0787 49.1407 31.5457C48.588 31.0127 47.8987 30.6927 47.1732 30.6325C46.4478 30.5722 45.7242 30.7749 45.1082 31.2109C44.4922 31.6469 44.0159 32.2935 43.7489 33.0561L37.5624 50.7227H18.1968C12.8907 40.9233 13.7694 27.5685 20.8338 18.9472C24.7003 14.2285 29.8303 11.6298 35.2785 11.6298C40.7267 11.6298 45.8567 14.2285 49.7232 18.9472L54.3807 24.6312C54.5435 24.8298 54.7409 24.9882 54.9606 25.0966C55.1803 25.2049 55.4175 25.2609 55.6573 25.2609C55.8971 25.2609 56.1343 25.2049 56.354 25.0966C56.5737 24.9882 56.7711 24.8298 56.9339 24.6312L61.394 19.1878C65.3224 14.3938 70.5325 11.7409 76.0643 11.7179C76.0884 11.7179 76.1118 11.7179 76.1358 11.7179C81.5107 11.7179 86.5637 14.2358 90.3701 18.813C98.5597 28.6604 98.6093 44.7423 90.4808 54.662H90.4809Z" fill="#9761AA"/>
</svg>
