<svg width="120" height="121" viewBox="0 0 120 121" fill="none" xmlns="http://www.w3.org/2000/svg">
<path d="M22.5 120.683H97.5V26.3974H90V13.5402C90 6.43936 84.9633 0.683105 78.75 0.683105H41.25C35.0367 0.683105 30 6.43936 30 13.5402V26.3974H22.5V120.683ZM45 17.826H75V26.3974H45V17.826ZM120 39.2545V107.826C120 114.927 114.963 120.683 108.75 120.683H105V26.3974H108.75C114.963 26.3974 120 32.1536 120 39.2545ZM15 120.683H11.25C5.03672 120.683 0 114.927 0 107.826V39.2545C0 32.1536 5.03672 26.3974 11.25 26.3974H15V120.683ZM82.5 64.9688V73.5402C82.5 75.9073 80.8212 77.826 78.75 77.826H67.5V90.6831C67.5 93.0502 65.8212 94.9688 63.75 94.9688H56.25C54.1788 94.9688 52.5 93.0502 52.5 90.6831V77.826H41.25C39.1788 77.826 37.5 75.9073 37.5 73.5402V64.9688C37.5 62.6018 39.1788 60.6831 41.25 60.6831H52.5V47.826C52.5 45.4589 54.1788 43.5402 56.25 43.5402H63.75C65.8212 43.5402 67.5 45.4589 67.5 47.826V60.6831H78.75C80.8212 60.6831 82.5 62.6018 82.5 64.9688Z" fill="#9761AA"/>
</svg>
