<svg width="120" height="121" viewBox="0 0 120 121" fill="none" xmlns="http://www.w3.org/2000/svg">
<path d="M118.065 101.328H92.9032V89.7155H102.581C103.649 89.7155 104.516 88.8503 104.516 87.78V80.0381C104.516 78.9678 103.649 78.1026 102.581 78.1026H71.6129C70.5445 78.1026 69.6774 78.9678 69.6774 80.0381V87.78C69.6774 88.8503 70.5445 89.7155 71.6129 89.7155H81.2903V101.328H49.1884L34.8581 86.9981C35.011 72.4956 39.3716 58.6705 47.371 46.9202L66.3735 65.9227C66.751 66.3001 67.2464 66.4898 67.7419 66.4898C68.2374 66.4898 68.7329 66.3001 69.1103 65.9227L71.6129 63.4201L77.9864 69.7936C78.3639 70.1711 78.8594 70.3607 79.3548 70.3607C79.8503 70.3607 80.3458 70.1711 80.7232 69.7936L92.3361 58.1808C93.0929 57.424 93.0929 56.2008 92.3361 55.444L85.9626 49.0705L88.4652 46.5679C89.2219 45.8112 89.2219 44.5879 88.4652 43.8312L49.7555 5.12164C48.9987 4.36486 47.7755 4.36486 47.0187 5.12164L44.5161 7.62421L38.1426 1.25068C37.3858 0.493913 36.1626 0.493913 35.4058 1.25068L23.7929 12.8635C23.0361 13.6203 23.0361 14.8435 23.7929 15.6003L30.1665 21.9738L27.6639 24.4764C26.9071 25.2332 26.9071 26.4564 27.6639 27.2132L36.0213 35.5705C22.9529 49.6047 15.7045 67.713 15.5052 86.9594L0.570968 101.894C0.216774 102.244 0 102.728 0 103.264V118.748C0 119.818 0.867097 120.683 1.93548 120.683H118.065C119.133 120.683 120 119.818 120 118.748V103.264C120 102.194 119.133 101.328 118.065 101.328ZM73.5484 81.9736H100.645V85.8445H90.9677H83.2258H73.5484V81.9736ZM85.1613 89.7155H89.0323V101.328H85.1613V89.7155ZM18.2206 89.7155H32.1019L43.7148 101.328H6.60774L18.2206 89.7155ZM57.4974 32.2183L49.7555 24.4764C48.9987 23.7196 47.7755 23.7196 47.0187 24.4764L38.7097 32.7854L36.6077 30.6835L53.2258 14.0655L78.5535 39.3931L61.9355 56.0111L49.6664 43.7421C51.6523 41.137 53.8123 38.6402 56.1677 36.2828L57.4974 34.9531C58.2542 34.1983 58.2542 32.9751 57.4974 32.2183ZM88.231 56.8124L79.3548 65.6885L74.3497 60.6833L83.2258 51.8073L88.231 56.8124ZM67.7419 61.8175L64.6723 58.7479L81.2903 42.1299L84.36 45.1995L67.7419 61.8175ZM27.8981 14.2319L36.7742 5.35583L41.7794 10.361L32.9032 19.2371L27.8981 14.2319ZM48.3871 9.22678L50.489 11.3287L33.871 27.9467L31.769 25.8448L48.3871 9.22678ZM40.6858 36.2847L48.3871 28.5815L53.3923 33.5867C39.3871 47.6111 31.4768 66.1007 30.991 85.8445H19.38C19.8658 67.1149 27.3871 49.5815 40.6858 36.2847ZM116.129 116.812H3.87097V105.199H116.129V116.812Z" fill="#9761AA"/>
<path d="M85.1613 4.55455C102.236 4.55455 116.129 18.4474 116.129 35.5222C116.129 51.2306 104.383 64.4518 88.8077 66.2789L89.2568 70.1228C106.783 68.0673 120 53.1931 120 35.5222C120 16.3126 104.371 0.683594 85.1613 0.683594C76.9065 0.683594 68.9013 3.62359 62.6187 8.9597L65.1232 11.9094C70.7071 7.16745 77.8239 4.55455 85.1613 4.55455Z" fill="#9761AA"/>
<path d="M95.2026 10.1479C92.9807 7.92599 89.1058 7.92599 86.8839 10.1479C85.7729 11.2589 85.1613 12.7357 85.1613 14.3073C85.1613 15.8789 85.7729 17.3557 86.8839 18.4647L90.6039 22.1847C91.7149 23.2956 93.1916 23.9073 94.7613 23.9073C96.3329 23.9073 97.8097 23.2956 98.9207 22.1847C100.034 21.0756 100.645 19.5989 100.645 18.0273C100.645 16.4557 100.034 14.9789 98.9226 13.8699L95.2026 10.1479ZM96.1858 19.4498C95.4252 20.2105 94.1013 20.2105 93.3426 19.4498L89.6226 15.7279C89.2413 15.3486 89.0323 14.8434 89.0323 14.3073C89.0323 13.7711 89.2413 13.264 89.6207 12.8847C90 12.5053 90.5071 12.2963 91.0433 12.2963C91.5794 12.2963 92.0845 12.5053 92.4639 12.8847L96.1839 16.6066C96.5652 16.986 96.7742 17.4911 96.7742 18.0273C96.7742 18.5634 96.5652 19.0705 96.1858 19.4498Z" fill="#9761AA"/>
<path d="M96.7742 41.2532C96.7742 42.8248 97.3858 44.3016 98.4967 45.4125C99.6077 46.5235 101.084 47.1351 102.656 47.1351C104.228 47.1351 105.704 46.5235 106.814 45.4125L110.534 41.6925C111.644 40.5816 112.256 39.1048 112.256 37.5351C112.256 35.9635 111.644 34.4867 110.534 33.3758C108.314 31.1538 104.437 31.1538 102.217 33.3758L98.4967 37.0958C97.3858 38.2048 96.7742 39.6816 96.7742 41.2532ZM101.234 39.8325L104.955 36.1125C105.335 35.7312 105.84 35.5222 106.376 35.5222C106.912 35.5222 107.419 35.7312 107.799 36.1106C108.178 36.49 108.387 36.997 108.387 37.5332C108.387 38.0693 108.178 38.5745 107.799 38.9538L104.077 42.6738C103.318 43.4345 101.994 43.4345 101.234 42.6738C100.854 42.2964 100.645 41.7893 100.645 41.2532C100.645 40.717 100.854 40.2119 101.234 39.8325Z" fill="#9761AA"/>
<path d="M72.18 22.3143L74.9167 25.0511L75.6967 24.273C76.8077 23.162 77.4193 21.6853 77.4193 20.1137C77.4193 18.5421 76.8077 17.0653 75.6967 15.9544C73.4767 13.7325 69.6 13.7325 67.38 15.9544L66.6 16.7344L69.3367 19.4711L70.1167 18.6911C70.8755 17.9305 72.1993 17.9305 72.96 18.6911C73.3393 19.0705 73.5484 19.5776 73.5484 20.1137C73.5484 20.6498 73.3393 21.155 72.96 21.5343L72.18 22.3143Z" fill="#9761AA"/>
<path d="M90.3232 41.2919C91.9626 39.8248 92.9032 37.721 92.9032 35.5223C92.9032 31.2526 89.4309 27.7804 85.1613 27.7804C82.9626 27.7804 80.8587 28.721 79.3916 30.3604L82.2755 32.9423C83.0109 32.1216 84.0619 31.6513 85.1613 31.6513C87.2961 31.6513 89.0322 33.3874 89.0322 35.5223C89.0322 36.6216 88.5619 37.6726 87.7413 38.4081L90.3232 41.2919Z" fill="#9761AA"/>
</svg>
