<svg width="319" height="75" viewBox="0 0 319 75" fill="none" xmlns="http://www.w3.org/2000/svg">
<path d="M29.9688 52.0938L43.375 13.5H49.9062L33.0625 59H28.4062L29.9688 52.0938ZM17.4375 13.5L30.7188 52.0938L32.375 59H27.7188L10.9062 13.5H17.4375ZM88.1375 54.0938V59H64.0438V54.0938H88.1375ZM65.2625 13.5V59H59.2313V13.5H65.2625ZM84.95 33.0625V37.9688H64.0438V33.0625H84.95ZM87.825 13.5V18.4375H64.0438V13.5H87.825ZM116.244 13.5V59H110.306V13.5H116.244ZM130.869 13.5V18.4375H95.7125V13.5H130.869ZM171.3 54.875C172.675 54.875 173.946 54.5938 175.113 54.0312C176.279 53.4688 177.238 52.6979 177.988 51.7188C178.738 50.7188 179.165 49.5833 179.269 48.3125H184.769C184.665 50.3125 183.988 52.1771 182.738 53.9062C181.508 55.6146 179.894 57 177.894 58.0625C175.894 59.1042 173.696 59.625 171.3 59.625C168.758 59.625 166.54 59.1771 164.644 58.2812C162.769 57.3854 161.206 56.1562 159.956 54.5938C158.727 53.0312 157.8 51.2396 157.175 49.2188C156.571 47.1771 156.269 45.0208 156.269 42.75V41.4375C156.269 39.1667 156.571 37.0208 157.175 35C157.8 32.9583 158.727 31.1562 159.956 29.5938C161.206 28.0312 162.769 26.8021 164.644 25.9062C166.54 25.0104 168.758 24.5625 171.3 24.5625C173.946 24.5625 176.258 25.1042 178.238 26.1875C180.217 27.25 181.769 28.7083 182.894 30.5625C184.04 32.3958 184.665 34.4792 184.769 36.8125H179.269C179.165 35.4167 178.769 34.1562 178.081 33.0312C177.415 31.9062 176.498 31.0104 175.331 30.3438C174.185 29.6562 172.842 29.3125 171.3 29.3125C169.529 29.3125 168.04 29.6667 166.831 30.375C165.644 31.0625 164.696 32 163.988 33.1875C163.3 34.3542 162.8 35.6562 162.488 37.0938C162.196 38.5104 162.05 39.9583 162.05 41.4375V42.75C162.05 44.2292 162.196 45.6875 162.488 47.125C162.779 48.5625 163.269 49.8646 163.956 51.0312C164.665 52.1979 165.613 53.1354 166.8 53.8438C168.008 54.5312 169.508 54.875 171.3 54.875ZM200.75 11V59H194.938V11H200.75ZM219.512 25.1875V59H213.7V25.1875H219.512ZM213.262 16.2188C213.262 15.2812 213.544 14.4896 214.106 13.8438C214.69 13.1979 215.544 12.875 216.669 12.875C217.773 12.875 218.617 13.1979 219.2 13.8438C219.804 14.4896 220.106 15.2812 220.106 16.2188C220.106 17.1146 219.804 17.8854 219.2 18.5312C218.617 19.1562 217.773 19.4688 216.669 19.4688C215.544 19.4688 214.69 19.1562 214.106 18.5312C213.544 17.8854 213.262 17.1146 213.262 16.2188ZM237.775 32.4062V59H231.994V25.1875H237.462L237.775 32.4062ZM236.4 40.8125L233.994 40.7188C234.015 38.4062 234.358 36.2708 235.025 34.3125C235.692 32.3333 236.629 30.6146 237.837 29.1562C239.046 27.6979 240.483 26.5729 242.15 25.7812C243.837 24.9688 245.702 24.5625 247.744 24.5625C249.41 24.5625 250.91 24.7917 252.244 25.25C253.577 25.6875 254.712 26.3958 255.65 27.375C256.608 28.3542 257.337 29.625 257.837 31.1875C258.337 32.7292 258.587 34.6146 258.587 36.8438V59H252.775V36.7812C252.775 35.0104 252.515 33.5938 251.994 32.5312C251.473 31.4479 250.712 30.6667 249.712 30.1875C248.712 29.6875 247.483 29.4375 246.025 29.4375C244.587 29.4375 243.275 29.7396 242.087 30.3438C240.921 30.9479 239.91 31.7812 239.056 32.8438C238.223 33.9062 237.567 35.125 237.087 36.5C236.629 37.8542 236.4 39.2917 236.4 40.8125ZM276.85 25.1875V59H271.038V25.1875H276.85ZM270.6 16.2188C270.6 15.2812 270.881 14.4896 271.444 13.8438C272.027 13.1979 272.881 12.875 274.006 12.875C275.11 12.875 275.954 13.1979 276.538 13.8438C277.142 14.4896 277.444 15.2812 277.444 16.2188C277.444 17.1146 277.142 17.8854 276.538 18.5312C275.954 19.1562 275.11 19.4688 274.006 19.4688C272.881 19.4688 272.027 19.1562 271.444 18.5312C270.881 17.8854 270.6 17.1146 270.6 16.2188ZM302.862 54.875C304.237 54.875 305.508 54.5938 306.675 54.0312C307.842 53.4688 308.8 52.6979 309.55 51.7188C310.3 50.7188 310.727 49.5833 310.831 48.3125H316.331C316.227 50.3125 315.55 52.1771 314.3 53.9062C313.071 55.6146 311.456 57 309.456 58.0625C307.456 59.1042 305.258 59.625 302.862 59.625C300.321 59.625 298.102 59.1771 296.206 58.2812C294.331 57.3854 292.769 56.1562 291.519 54.5938C290.29 53.0312 289.362 51.2396 288.737 49.2188C288.133 47.1771 287.831 45.0208 287.831 42.75V41.4375C287.831 39.1667 288.133 37.0208 288.737 35C289.362 32.9583 290.29 31.1562 291.519 29.5938C292.769 28.0312 294.331 26.8021 296.206 25.9062C298.102 25.0104 300.321 24.5625 302.862 24.5625C305.508 24.5625 307.821 25.1042 309.8 26.1875C311.779 27.25 313.331 28.7083 314.456 30.5625C315.602 32.3958 316.227 34.4792 316.331 36.8125H310.831C310.727 35.4167 310.331 34.1562 309.644 33.0312C308.977 31.9062 308.06 31.0104 306.894 30.3438C305.748 29.6562 304.404 29.3125 302.862 29.3125C301.092 29.3125 299.602 29.6667 298.394 30.375C297.206 31.0625 296.258 32 295.55 33.1875C294.862 34.3542 294.362 35.6562 294.05 37.0938C293.758 38.5104 293.612 39.9583 293.612 41.4375V42.75C293.612 44.2292 293.758 45.6875 294.05 47.125C294.342 48.5625 294.831 49.8646 295.519 51.0312C296.227 52.1979 297.175 53.1354 298.362 53.8438C299.571 54.5312 301.071 54.875 302.862 54.875Z" fill="#AFF2AE"/>
<line x1="1.88268" y1="14.3251" x2="20.8827" y2="67.3251" stroke="#AFF2AE" stroke-width="4"/>
<line x1="19" y1="66" x2="319" y2="66" stroke="#AFF2AE" stroke-width="4"/>
</svg>
