<svg width="63" height="100" viewBox="0 0 63 100" fill="none" xmlns="http://www.w3.org/2000/svg">
<path d="M31.4747 0C19.1396 0 8.97141 10.0015 8.97141 22.5033C8.97141 34.8384 18.9729 45.0066 31.4747 45.0066C43.9765 45.0066 53.978 35.0051 53.978 22.5033C53.978 10.0015 43.8098 0 31.4747 0ZM31.4747 30.0044C27.3074 30.0044 23.9736 26.6706 23.9736 22.5033C23.9736 18.336 27.3074 15.0022 31.4747 15.0022C35.642 15.0022 38.9758 18.336 38.9758 22.5033C38.9758 26.6706 35.642 30.0044 31.4747 30.0044Z" fill="#9761AA"/>
<path d="M59.1507 60.0902C53.4832 63.2574 47.3156 65.4243 41.1481 66.4245L58.6506 87.9276C60.6509 90.428 61.151 93.9285 59.3174 96.5956C56.4836 100.93 50.4828 101.096 47.4823 97.2623L31.3133 77.4261L15.311 97.2623C13.8107 99.0959 11.8105 99.9294 9.64347 99.9294C7.47649 99.9294 5.3095 98.9292 3.80929 96.9289C1.97569 94.4286 2.14238 90.2613 4.14267 87.7609L21.4785 66.0911C15.311 64.9243 9.1434 62.924 3.6426 59.7569C0.142086 57.7566 -1.02475 53.4226 0.97554 49.7554C2.97583 46.2549 7.47649 45.088 10.977 47.0883C23.6455 54.256 39.4812 54.256 52.3164 47.255C55.8169 45.2547 60.3175 46.5883 62.1511 50.0888C63.9847 53.756 62.6512 58.0899 59.1507 60.0902Z" fill="#9761AA"/>
</svg>
