<svg width="120" height="121" viewBox="0 0 120 121" fill="none" xmlns="http://www.w3.org/2000/svg">
<path d="M10.0656 101.548H44.127C46.7538 108.145 53.2812 111.793 56.0354 113.075V118.551C56.0364 118.989 56.2776 119.409 56.7059 119.718C57.1342 120.028 57.7147 120.202 58.3199 120.202H103.533C104.138 120.201 104.717 120.027 105.145 119.717C105.572 119.408 105.813 118.988 105.814 118.551V102.799L119.143 73.1713C119.942 71.4064 120.186 69.5347 119.859 67.6926C119.532 65.8506 118.642 64.0845 117.253 62.5232L100.871 44.0366C100.715 43.8441 100.508 43.6764 100.26 43.5435C100.013 43.4107 99.7308 43.3154 99.4313 43.2634C99.1318 43.2115 98.8208 43.2039 98.5171 43.2412C98.2135 43.2785 97.9233 43.3599 97.6642 43.4804C97.4051 43.601 97.1823 43.7582 97.0092 43.9427C96.8362 44.1272 96.7164 44.3351 96.6572 44.5539C96.5979 44.7728 96.6004 44.9981 96.6645 45.2162C96.7286 45.4343 96.8529 45.6408 97.0301 45.8233L113.412 64.3099C114.435 65.4592 115.09 66.7593 115.33 68.1154C115.571 69.4715 115.39 70.8493 114.801 72.1483L101.36 102.024C101.287 102.19 101.25 102.363 101.249 102.537V116.899H60.6005V112.133C60.6009 111.83 60.4859 111.533 60.2683 111.274C60.0506 111.015 59.7387 110.805 59.3667 110.666C54.5259 108.596 50.8276 105.373 48.9031 101.548H59.9677C61.5597 104.465 64.4333 107.704 69.7029 109.698C70.0277 109.823 70.3899 109.888 70.7576 109.888C71.2682 109.888 71.7639 109.764 72.1658 109.536C72.5676 109.308 72.8524 108.989 72.9747 108.63C73.0971 108.271 73.0498 107.893 72.8406 107.556C72.6313 107.219 72.2721 106.942 71.8203 106.77C63.0085 103.433 62.6224 95.1478 62.6184 95.1016C62.6184 84.0097 73.3248 80.8109 73.7626 80.6928C74.1941 80.5731 74.5652 80.3613 74.8268 80.0854C75.0883 79.8096 75.228 79.4827 75.2273 79.1481V62.7768C75.2694 61.5401 75.9774 60.3644 77.2003 59.5005C78.4232 58.6367 80.064 58.1531 81.7725 58.1531C83.4809 58.1531 85.1218 58.6367 86.3446 59.5005C87.5675 60.3644 88.2756 61.5401 88.3177 62.7768V82.3094C88.3048 82.5323 88.3544 82.7547 88.4633 82.9633C88.5722 83.172 88.7382 83.3625 88.9515 83.5235C89.1647 83.6844 89.4207 83.8125 89.704 83.9C89.9874 83.9875 90.2922 84.0326 90.6003 84.0326C90.9083 84.0326 91.2132 83.9875 91.4965 83.9C91.7798 83.8125 92.0358 83.6844 92.2491 83.5235C92.4623 83.3625 92.6283 83.172 92.7373 82.9633C92.8462 82.7547 92.8957 82.5323 92.8828 82.3094V62.7768C92.8277 60.6696 91.633 58.6622 89.5554 57.1861C87.4778 55.71 84.6832 54.8831 81.7725 54.8831C78.8617 54.8831 76.0672 55.71 73.9896 57.1861C71.912 58.6622 70.7172 60.6696 70.6621 62.7768V78.102C67.0442 79.5199 58.0493 84.1538 58.0493 95.1362C58.1118 96.1814 58.2982 97.2207 58.6065 98.2428H24.2545V3.5073H39.2793V92.4936C39.3039 92.92 39.5551 93.323 39.9805 93.6184C40.4059 93.9138 40.9725 94.0787 41.5619 94.0787C42.1513 94.0787 42.7178 93.9138 43.1432 93.6184C43.5686 93.323 43.8198 92.92 43.8444 92.4936V3.5073H82.8212C84.2794 3.50882 85.6772 3.92891 86.7083 4.67546C87.7394 5.42202 88.3196 6.43413 88.3217 7.48991V51.2698C88.3463 51.6962 88.5975 52.0992 89.0229 52.3946C89.4483 52.69 90.0148 52.855 90.6042 52.855C91.1936 52.855 91.7602 52.69 92.1856 52.3946C92.611 52.0992 92.8622 51.6962 92.8868 51.2698V7.48991C92.8847 5.55748 91.8236 3.70464 89.9363 2.3382C88.0491 0.971763 85.4901 0.203431 82.8212 0.201904H10.0656C7.39667 0.203431 4.83768 0.971763 2.95047 2.3382C1.06326 3.70464 0.00210815 5.55748 0 7.48991V94.2602C0.00315997 96.1924 1.06465 98.0448 2.95163 99.411C4.83861 100.777 7.397 101.546 10.0656 101.548ZM4.56514 7.48991C4.56724 6.43413 5.14743 5.42202 6.17851 4.67546C7.20959 3.92891 8.60742 3.50882 10.0656 3.5073H19.6894V98.2428H10.0656C8.60742 98.2413 7.20959 97.8212 6.17851 97.0746C5.14743 96.3281 4.56724 95.3159 4.56514 94.2602V7.48991Z" fill="#9761AA"/>
<path d="M56.1449 79.9163C56.7294 79.9163 57.2899 79.7415 57.7032 79.4302C58.1165 79.119 58.3487 78.6968 58.3487 78.2567V56.6494C58.325 56.2216 58.0826 55.8173 57.6723 55.5209C57.2619 55.2245 56.7154 55.0591 56.1468 55.0591C55.5783 55.0591 55.0317 55.2245 54.6214 55.5209C54.211 55.8173 53.9687 56.2216 53.9449 56.6494V78.2567C53.9444 78.4745 54.001 78.6902 54.1113 78.8916C54.2216 79.0929 54.3836 79.2759 54.5879 79.43C54.7923 79.5842 55.035 79.7065 55.3021 79.7899C55.5693 79.8734 55.8557 79.9163 56.1449 79.9163Z" fill="#9761AA"/>
<path d="M53.991 48.8817C54.0186 48.9636 54.061 49.0436 54.1177 49.1202C54.1693 49.1999 54.2376 49.2755 54.3212 49.3452C54.4 49.4153 54.4914 49.4801 54.5938 49.5388C54.9003 49.7183 55.2904 49.8407 55.7152 49.8908C56.14 49.9408 56.5805 49.9162 56.9816 49.8201C57.3826 49.724 57.7263 49.5606 57.9695 49.3504C58.2127 49.1402 58.3446 48.8926 58.3486 48.6387C58.3501 48.5533 58.336 48.468 58.3063 48.3844C58.2778 48.3014 58.2367 48.2201 58.1835 48.1414C58.1265 48.0632 58.0585 47.9879 57.98 47.9164C57.8984 47.847 57.8058 47.7822 57.7036 47.7229C57.4996 47.603 57.2572 47.5079 56.9904 47.443C56.7236 47.3781 56.4376 47.3447 56.1487 47.3447C55.8598 47.3447 55.5737 47.3781 55.3069 47.443C55.0401 47.5079 54.7978 47.603 54.5938 47.7229C54.4905 47.781 54.399 47.846 54.3212 47.9164C54.2398 47.9869 54.1715 48.0623 54.1177 48.1414C54.0615 48.2197 54.0191 48.3011 53.991 48.3844C53.9601 48.468 53.9447 48.5532 53.9449 48.6387C53.9463 48.7204 53.9617 48.8018 53.991 48.8817V48.8817Z" fill="#9761AA"/>
<path d="M54.5938 42.5611C55.0073 42.88 55.5662 43.059 56.1487 43.059C56.7313 43.059 57.2902 42.88 57.7037 42.5611C57.807 42.4811 57.8996 42.3931 57.9801 42.2985C58.061 42.2047 58.1291 42.1047 58.1836 42.0001C58.2378 41.898 58.279 41.7921 58.3065 41.6837C58.3628 41.4621 58.3628 41.234 58.3065 41.0123C58.278 40.9022 58.2368 40.7943 58.1836 40.69C58.1266 40.5862 58.0586 40.4864 57.9801 40.3915C57.8976 40.2991 57.8051 40.2122 57.7037 40.1319C57.4997 39.9729 57.2573 39.8468 56.9905 39.7607C56.7237 39.6746 56.4376 39.6303 56.1487 39.6303C55.8598 39.6303 55.5738 39.6746 55.307 39.7607C55.0401 39.8468 54.7978 39.9729 54.5938 40.1319C54.3905 40.2913 54.2288 40.4798 54.1177 40.687C54.0615 40.7908 54.0191 40.8988 53.991 41.0093C53.9605 41.1191 53.9451 41.2312 53.9449 41.3435C53.947 41.7999 54.1801 42.2373 54.5938 42.5611V42.5611Z" fill="#9761AA"/>
<path d="M54.1177 34.55C54.169 34.6294 54.2374 34.7047 54.3212 34.774C54.3979 34.846 54.4895 34.9122 54.5938 34.9711C55.0073 35.2105 55.5662 35.3449 56.1487 35.3449C56.7312 35.3449 57.2901 35.2105 57.7036 34.9711C57.9089 34.852 58.0716 34.7102 58.1824 34.5541C58.2931 34.398 58.3496 34.2306 58.3486 34.0616C58.3498 33.9774 58.3356 33.8933 58.3064 33.8107C58.2789 33.7287 58.2378 33.6484 58.1835 33.571C58.1282 33.4927 58.0601 33.4177 57.98 33.347C57.8986 33.2765 57.806 33.2105 57.7036 33.1499C57.4996 33.0305 57.2573 32.9359 56.9904 32.8713C56.7236 32.8066 56.4376 32.7734 56.1487 32.7734C55.8598 32.7734 55.5738 32.8066 55.3069 32.8713C55.0401 32.9359 54.7978 33.0305 54.5938 33.1499C54.4904 33.2094 54.399 33.2755 54.3212 33.347C54.2382 33.4167 54.1699 33.4919 54.1177 33.571C54.0605 33.648 54.018 33.7284 53.991 33.8107C53.9605 33.8932 53.9451 33.9773 53.9449 34.0616C53.9449 34.146 53.9603 34.2301 53.991 34.3125C54.0177 34.3942 54.0602 34.4739 54.1177 34.55V34.55Z" fill="#9761AA"/>
</svg>
