<svg width="120" height="120" viewBox="0 0 120 120" fill="none" xmlns="http://www.w3.org/2000/svg">
<path d="M45 15C48.7084 15 52.3335 16.0997 55.417 18.1599C58.5004 20.2202 60.9036 23.1486 62.3228 26.5747C63.7419 30.0008 64.1132 33.7708 63.3897 37.4079C62.6663 41.0451 60.8805 44.386 58.2583 47.0083C55.636 49.6305 52.2951 51.4163 48.658 52.1397C45.0208 52.8632 41.2508 52.4919 37.8247 51.0727C34.3986 49.6536 31.4702 47.2504 29.41 44.1669C27.3497 41.0835 26.25 37.4584 26.25 33.75C26.25 28.7772 28.2255 24.0081 31.7418 20.4917C35.2581 16.9754 40.0272 15 45 15ZM45 7.5C39.8083 7.5 34.7331 9.03954 30.4163 11.9239C26.0995 14.8083 22.735 18.908 20.7482 23.7046C18.7614 28.5011 18.2415 33.7791 19.2544 38.8711C20.2673 43.9631 22.7673 48.6404 26.4385 52.3116C30.1096 55.9827 34.7869 58.4828 39.8789 59.4956C44.9709 60.5085 50.2489 59.9886 55.0455 58.0018C59.842 56.015 63.9417 52.6505 66.8261 48.3337C69.7105 44.0169 71.25 38.9418 71.25 33.75C71.25 26.7881 68.4844 20.1113 63.5616 15.1884C58.6387 10.2656 51.9619 7.5 45 7.5Z" fill="#9761AA"/>
<path d="M82.5 112.5H75V93.75C75 88.7772 73.0246 84.0081 69.5083 80.4917C65.9919 76.9754 61.2228 75 56.25 75H33.75C28.7772 75 24.0081 76.9754 20.4917 80.4917C16.9754 84.0081 15 88.7772 15 93.75V112.5H7.5V93.75C7.5 86.7881 10.2656 80.1113 15.1884 75.1884C20.1113 70.2656 26.7881 67.5 33.75 67.5H56.25C63.2119 67.5 69.8887 70.2656 74.8116 75.1884C79.7344 80.1113 82.5 86.7881 82.5 93.75V112.5Z" fill="#9761AA"/>
<path d="M93.75 60.675L84.0375 50.9625L78.75 56.25L93.75 71.25L120 45L114.713 39.7125L93.75 60.675Z" fill="#9761AA"/>
</svg>
