<svg width="100" height="101" viewBox="0 0 100 101" fill="none" xmlns="http://www.w3.org/2000/svg">
<path d="M99.5501 80.2231L99.0524 78.7231C97.8735 75.2186 94.0096 71.5635 90.4598 70.6006L77.322 67.0109C73.7592 66.0415 68.677 67.3451 66.0703 69.952L61.3155 74.7077C44.0354 70.0375 30.4851 56.4844 25.822 39.2044L30.5771 34.4485C33.1838 31.8413 34.4869 26.7649 33.5176 23.2015L29.9351 10.0547C28.9659 6.49781 25.3048 2.63316 21.8076 1.46708L20.3079 0.962753C16.804 -0.203327 11.8069 0.975958 9.20042 3.58292L2.08786 10.7033C0.817207 11.9675 0.00510357 15.5833 0.00510357 15.5965C-0.243662 38.1824 8.61088 59.9428 24.5843 75.9193C40.5185 91.8564 62.1934 100.7 84.7095 100.51C84.8273 100.51 88.5472 99.7104 89.8179 98.4461L96.9304 91.3322C99.5369 88.7254 100.716 83.7276 99.5501 80.2231Z" fill="#9761AA"/>
</svg>
