<svg width="100" height="58" viewBox="0 0 100 58" fill="none" xmlns="http://www.w3.org/2000/svg">
<path d="M99.4699 51.5265C99.3488 51.2655 99.2359 51.0491 99.1311 50.8757C97.3961 47.7509 94.0805 43.9154 89.1865 39.3682L89.083 39.2641L89.0313 39.213L88.9789 39.1607H88.9264C86.7052 37.0433 85.2987 35.6196 84.7096 34.8907C83.6319 33.5021 83.3904 32.0967 83.9794 30.6726C84.3956 29.5967 85.9588 27.3244 88.6654 23.8528C90.0891 22.0129 91.2167 20.5383 92.0494 19.4274C98.0547 11.4436 100.658 6.34178 99.8596 4.12005L99.5494 3.60087C99.341 3.2883 98.803 3.00235 97.9362 2.74157C97.0674 2.48134 95.957 2.4383 94.603 2.61173L79.6084 2.71531C79.3655 2.62924 79.0186 2.63726 78.5667 2.74157C78.1154 2.84588 77.8896 2.89822 77.8896 2.89822L77.6287 3.02861L77.4215 3.18526C77.2479 3.28884 77.057 3.47102 76.8485 3.73144C76.6412 3.99094 76.4678 4.29548 76.3292 4.64252C74.6966 8.84251 72.8406 12.7474 70.7574 16.3571C69.473 18.5096 68.2935 20.3749 67.2163 21.9544C66.1406 23.5333 65.238 24.6966 64.5097 25.4423C63.7802 26.1887 63.1219 26.7866 62.5307 27.2384C61.9404 27.6902 61.4898 27.8812 61.1777 27.8113C60.865 27.7415 60.5705 27.6722 60.2916 27.6029C59.806 27.2903 59.4154 26.8652 59.1209 26.3273C58.8251 25.7893 58.6259 25.1122 58.5218 24.2965C58.4182 23.4802 58.357 22.7781 58.3394 22.1878C58.3232 21.5982 58.3307 20.7643 58.3659 19.6884C58.402 18.6119 58.4182 17.8835 58.4182 17.5016C58.4182 16.1824 58.4439 14.7507 58.4956 13.2061C58.5481 11.6615 58.5906 10.4376 58.6261 9.53604C58.6615 8.63353 58.6779 7.67868 58.6779 6.67204C58.6779 5.66539 58.6166 4.87594 58.4956 4.30296C58.3759 3.73071 58.1923 3.17523 57.9503 2.63671C57.7068 2.09874 57.3505 1.68259 56.8829 1.38716C56.4144 1.0921 55.832 0.857948 55.1388 0.683974C53.2989 0.26764 50.9561 0.0424219 48.1093 0.00740827C41.6534 -0.0618896 37.5052 0.354991 35.6656 1.2575C34.9367 1.63882 34.2771 2.15983 33.6873 2.81889C33.0623 3.58281 32.9752 3.99969 33.4263 4.06826C35.5093 4.38028 36.9839 5.12669 37.8517 6.30676L38.1645 6.93208C38.4078 7.38325 38.6507 8.182 38.8938 9.32724C39.1365 10.4725 39.2931 11.7393 39.3621 13.1271C39.5353 15.6614 39.5353 17.8308 39.3621 19.6355C39.1883 21.4409 39.0241 22.8463 38.8675 23.853C38.7108 24.8596 38.4767 25.6753 38.1645 26.2999C37.8517 26.9247 37.6437 27.3066 37.5393 27.4452C37.4352 27.5837 37.3484 27.6711 37.2795 27.7054C36.8283 27.8783 36.3591 27.9663 35.8735 27.9663C35.3871 27.9663 34.7973 27.7231 34.1033 27.2369C33.4094 26.7507 32.6892 26.0829 31.9428 25.2324C31.1964 24.3816 30.3546 23.1928 29.4171 21.6657C28.4803 20.1386 27.5083 18.3338 26.5017 16.2512L25.6688 14.7409C25.1482 13.7692 24.437 12.3545 23.5344 10.4978C22.6314 8.64046 21.8332 6.84382 21.1393 5.10827C20.8619 4.37937 20.4452 3.82444 19.8899 3.44258L19.6293 3.28592C19.4561 3.14733 19.178 3.00016 18.7965 2.84333C18.4144 2.68668 18.0158 2.57434 17.5989 2.50523L3.33286 2.60881C1.87505 2.60881 0.885918 2.93907 0.36509 3.59868L0.15665 3.9107C0.0525204 4.08449 0 4.36205 0 4.7441C0 5.12596 0.104129 5.59464 0.31257 6.14957C2.39515 11.0442 4.65991 15.7646 7.10685 20.3117C9.5538 24.8587 11.6801 28.5215 13.4846 31.2966C15.2895 34.0739 17.1291 36.695 19.0036 39.1587C20.8782 41.6233 22.1189 43.2027 22.726 43.8966C23.3338 44.5918 23.8113 45.1115 24.1583 45.4586L25.4602 46.7079C26.2932 47.5412 27.5165 48.539 29.1306 49.7016C30.7451 50.8649 32.5324 52.0101 34.4935 53.1391C36.455 54.2663 38.7369 55.1862 41.3405 55.8976C43.9437 56.6097 46.4775 56.8954 48.9421 56.7576H54.9298C56.1442 56.6527 57.0642 56.2709 57.6895 55.6118L57.8967 55.3508C58.036 55.1437 58.1664 54.8218 58.2867 54.3887C58.4086 53.9549 58.4691 53.4769 58.4691 52.957C58.4335 51.4647 58.5472 50.1198 58.8068 48.9224C59.0663 47.7253 59.3621 46.8228 59.6929 46.215C60.0236 45.6077 60.3967 45.0953 60.8119 44.6799C61.2281 44.2635 61.5246 44.0113 61.6986 43.9245C61.8714 43.8372 62.0095 43.7779 62.1136 43.7424C62.9467 43.4648 63.927 43.7336 65.0562 44.55C66.1845 45.3657 67.2428 46.3729 68.2326 47.57C69.2219 48.7681 70.4106 50.1123 71.7987 51.6046C73.1878 53.0974 74.4023 54.2071 75.4432 54.9371L76.4842 55.5618C77.1793 55.9787 78.0818 56.3606 79.1928 56.7076C80.3017 57.0545 81.2734 57.1413 82.1077 56.9678L95.436 56.76C96.7543 56.76 97.7801 56.5417 98.5077 56.1086C99.2368 55.6747 99.6699 55.1967 99.8096 54.6768C99.949 54.1564 99.9564 53.5659 99.8361 52.9057C99.7126 52.2472 99.591 51.7867 99.4699 51.5265Z" fill="#9761AA"/>
</svg>
